<svg width="32" height="32" viewBox="0 0 762 439" fill="none" xmlns="http://www.w3.org/2000/svg">
  <path d="M175.392 48.3896L233.757 110.339C233.757 110.339 156.782 188.475 159.447 220.802C162.112 253.13 233.757 325.855 233.757 325.855L172.727 395.876C172.727 395.876 -7.69557 261.201 0.255269 222.177C8.20611 183.109 109.077 72.6463 175.392 48.3896Z" fill="#57EEA1"/>
  <path d="M324.012 2.63199C324.012 2.63199 621.251 -40.4712 761.876 222.183C761.876 222.183 642.438 474.062 324.012 433.664C324.012 433.664 509.764 394.995 613.3 219.035C613.3 219.035 538.99 67.2868 324.012 2.63199Z" fill="#57EEA1"/>
  <path d="M493.686 218.99C406.62 233.313 395.087 245.02 380.977 333.4C366.866 245.02 355.333 233.313 268.267 218.99C355.333 204.666 366.866 192.959 380.977 104.58C395.087 192.959 406.62 204.666 493.686 218.99Z" fill="#57EEA1"/>
</svg>
